name pl06_filtered_grf.mot
datacolumns 37
datarows 15
range 0.971500 0.978500
endheader
time	1_ground_force_vx	1_ground_force_vy	1_ground_force_vz	1_ground_force_px	1_ground_force_py	1_ground_force_pz	1_ground_torque_x	1_ground_torque_y	1_ground_torque_z	2_ground_force_vx	2_ground_force_vy	2_ground_force_vz	2_ground_force_px	2_ground_force_py	2_ground_force_pz	2_ground_torque_x	2_ground_torque_y	2_ground_torque_z	3_ground_force_vx	3_ground_force_vy	3_ground_force_vz	3_ground_force_px	3_ground_force_py	3_ground_force_pz	3_ground_torque_x	3_ground_torque_y	3_ground_torque_z	4_ground_force_vx	4_ground_force_vy	4_ground_force_vz	4_ground_force_px	4_ground_force_py	4_ground_force_pz	4_ground_torque_x	4_ground_torque_y	4_ground_torque_z
            0.971500	            4.351918	          -29.649002	          -23.065892	            0.166700	            0.000000	            0.153734	            0.019262	           -0.131226	           -0.102089	           -8.151170	          -41.122854	          -29.181973	           -0.255700	            0.000000	            0.166231	           -0.534319	           -2.695654	           -1.912914	           -0.113673	           -0.625012	           -1.190649	            0.413328	            1.262882	            1.873854	            0.036912	           -0.004401	            0.030191	           -2.005356	           -1.675794	           -2.219367	           -0.353357	            1.256020	            1.901114	            0.033638	           -0.032693	            0.036949
            0.972000	            4.757661	          -31.543023	          -24.532589	            0.167103	            0.000000	            0.152200	            0.019315	           -0.128059	           -0.099598	           -8.544883	          -41.964387	          -30.281775	           -0.257420	            0.000000	            0.164604	           -0.565555	           -2.777471	           -2.004241	           -0.117393	           -0.625188	           -1.196900	            0.413325	            1.262883	            1.873868	            0.037082	           -0.004680	            0.029708	           -1.994300	           -1.685945	           -2.234865	           -0.353360	            1.256025	            1.901130	            0.033734	           -0.032412	            0.037075
            0.972500	            5.161059	          -33.368796	          -25.951285	            0.167493	            0.000000	            0.150748	            0.019131	           -0.123689	           -0.096195	           -8.914238	          -42.610409	          -31.278619	           -0.259216	            0.000000	            0.162916	           -0.595514	           -2.846582	           -2.089563	           -0.120706	           -0.625257	           -1.203547	            0.413323	            1.262885	            1.873881	            0.037259	           -0.004957	            0.029216	           -1.983039	           -1.696184	           -2.250937	           -0.353364	            1.256029	            1.901145	            0.033823	           -0.032122	            0.037215
            0.973000	            5.559846	          -35.111630	          -27.311504	            0.167872	            0.000000	            0.149356	            0.018696	           -0.118067	           -0.091838	           -9.255736	          -43.043703	          -32.160656	           -0.261112	            0.000000	            0.161146	           -0.623934	           -2.901600	           -2.167968	           -0.123580	           -0.625224	           -1.210568	            0.413320	            1.262886	            1.873895	            0.037442	           -0.005234	            0.028716	           -1.971579	           -1.706496	           -2.267564	           -0.353368	            1.256033	            1.901161	            0.033903	           -0.031821	            0.037369
            0.973500	            5.951645	          -36.756289	          -28.602426	            0.168248	            0.000000	            0.148003	            0.017996	           -0.111140	           -0.086485	           -9.565799	          -43.246912	          -32.915872	           -0.263136	            0.000000	            0.159263	           -0.650539	           -2.941082	           -2.238502	           -0.125998	           -0.625080	           -1.217948	            0.413317	            1.262886	            1.873909	            0.037630	           -0.005509	            0.028208	           -1.959924	           -1.716882	           -2.284717	           -0.353372	            1.256037	            1.901177	            0.033973	           -0.031510	            0.037537
            0.974000	            6.333975	          -38.287023	          -29.812920	            0.168623	            0.000000	            0.146673	            0.017015	           -0.102851	           -0.080087	           -9.840789	          -43.202601	          -33.532124	           -0.265323	            0.000000	            0.157236	           -0.675037	           -2.963520	           -2.300165	           -0.127939	           -0.624819	           -1.225666	            0.413315	            1.262887	            1.873923	            0.037821	           -0.005786	            0.027695	           -1.948077	           -1.727336	           -2.302367	           -0.353377	            1.256040	            1.901193	            0.034033	           -0.031189	            0.037716
            0.974500	            6.704250	          -39.687608	          -30.931571	            0.169002	            0.000000	            0.145350	            0.015735	           -0.093146	           -0.072596	          -10.077015	          -42.893318	          -33.997196	           -0.267713	            0.000000	            0.155023	           -0.697122	           -2.967335	           -2.351907	           -0.129382	           -0.624438	           -1.233702	            0.413312	            1.262888	            1.873936	            0.038016	           -0.006064	            0.027178	           -1.936042	           -1.737852	           -2.320482	           -0.353381	            1.256044	            1.901209	            0.034083	           -0.030857	            0.037907
            0.975000	            7.059796	          -40.941390	          -31.946727	            0.169391	            0.000000	            0.144018	            0.014134	           -0.081966	           -0.063958	          -10.270752	          -42.301663	          -34.298845	           -0.270360	            0.000000	            0.152571	           -0.716464	           -2.950865	           -2.392607	           -0.130310	           -0.623931	           -1.242032	            0.413309	            1.262889	            1.873950	            0.038213	           -0.006345	            0.026657	           -1.923822	           -1.748424	           -2.339028	           -0.353385	            1.256048	            1.901224	            0.034120	           -0.030515	            0.038108
            0.975500	            7.397850	          -42.031329	          -32.846528	            0.169793	            0.000000	            0.142663	            0.012189	           -0.069252	           -0.054119	          -10.418253	          -41.410359	          -34.424853	           -0.273331	            0.000000	            0.149810	           -0.732703	           -2.912342	           -2.421059	           -0.130707	           -0.623300	           -1.250632	            0.413307	            1.262889	            1.873964	            0.038411	           -0.006628	            0.026135	           -1.911426	           -1.759031	           -2.357972	           -0.353390	            1.256051	            1.901240	            0.034145	           -0.030164	            0.038318
            0.976000	            7.715572	          -42.940048	          -33.618958	            0.170214	            0.000000	            0.141266	            0.009873	           -0.054945	           -0.043018	          -10.515763	          -40.202317	          -34.363083	           -0.276715	            0.000000	            0.146646	           -0.745443	           -2.849868	           -2.435935	           -0.130561	           -0.622532	           -1.259480	            0.413304	            1.262890	            1.873977	            0.038610	           -0.006915	            0.025613	           -1.898849	           -1.769680	           -2.377269	           -0.353395	            1.256055	            1.901256	            0.034156	           -0.029802	            0.038536
            0.976500	            8.010053	          -43.649889	          -34.251884	            0.170660	            0.000000	            0.139812	            0.007154	           -0.038985	           -0.030591	          -10.559542	          -38.660710	          -34.101535	           -0.280631	            0.000000	            0.142950	           -0.754224	           -2.761372	           -2.435729	           -0.129864	           -0.621620	           -1.268553	            0.413301	            1.262890	            1.873991	            0.038807	           -0.007206	            0.025091	           -1.886094	           -1.780364	           -2.396877	           -0.353400	            1.256058	            1.901272	            0.034154	           -0.029431	            0.038761
            0.977000	            8.278327	          -44.142967	          -34.733106	            0.171140	            0.000000	            0.138278	            0.003996	           -0.021309	           -0.016766	          -10.545877	          -36.769049	          -33.628405	           -0.285244	            0.000000	            0.138535	           -0.758495	           -2.644553	           -2.418668	           -0.128608	           -0.620555	           -1.277827	            0.413299	            1.262890	            1.874005	            0.039004	           -0.007501	            0.024572	           -1.873162	           -1.791076	           -2.416751	           -0.353405	            1.256061	            1.901288	            0.034138	           -0.029051	            0.038993
            0.977500	            8.517377	          -44.401231	          -35.050407	            0.171661	            0.000000	            0.136642	            0.000356	           -0.001853	           -0.001463	          -10.471099	          -34.511254	          -32.932146	           -0.290792	            0.000000	            0.133120	           -0.757556	           -2.496797	           -2.382553	           -0.126787	           -0.619332	           -1.287279	            0.413296	            1.262891	            1.874018	            0.039197	           -0.007802	            0.024057	           -1.860055	           -1.801807	           -2.436843	           -0.353410	            1.256065	            1.901304	            0.034107	           -0.028661	            0.039229
            0.978000	            8.724151	          -44.406524	          -35.191610	            0.172234	            0.000000	            0.134875	           -0.003821	            0.019447	            0.015411	          -10.331607	          -31.871733	          -32.001530	           -0.297624	            0.000000	            0.126266	           -0.750457	           -2.315066	           -2.324494	           -0.124399	           -0.617950	           -1.296880	            0.413293	            1.262891	            1.874032	            0.039388	           -0.008108	            0.023547	           -1.846787	           -1.812531	           -2.457111	           -0.353415	            1.256067	            1.901320	            0.034062	           -0.028263	            0.039469
            0.978500	            8.895573	          -44.140654	          -35.144626	            0.172874	            0.000000	            0.132942	           -0.008597	            0.042660	            0.033966	          -10.123882	          -28.835452	          -30.825709	           -0.306281	            0.000000	            0.117242	           -0.735804	           -2.095762	           -2.240414	           -0.121444	           -0.616394	           -1.306612	            0.413290	            1.262891	            1.874045	            0.039573	           -0.008420	            0.023043	           -1.833348	           -1.823255	           -2.477499	           -0.353421	            1.256070	            1.901336	            0.034001	           -0.027856	            0.039711
